<svg xmlns="http://www.w3.org/2000/svg" viewBox="0 0 4483 1113" width="4483" height="1113">
	<style>
		tspan { white-space:pre }
		.shp0 { fill: #ffffff } 
	</style>
	<g id="Layer">
		<g id="Layer">
			<path id="Layer" fill-rule="evenodd" class="shp0" d="M46.12 607.9C48.81 490.19 146.67 390.78 264.28 386.27C326.73 383.79 385.74 406.38 430.62 449.58C475.49 492.8 500.23 550.91 500.23 613.21C500.23 687.62 463.56 757.41 402.12 799.87C397.93 802.79 395.42 807.91 395.42 813.6L395.42 880.07C405.81 886.13 412.89 897.28 412.89 910.17C412.89 929.47 397.25 945.1 377.95 945.1L360.48 945.1C379.78 945.1 395.42 960.74 395.42 980.04C395.42 999.34 379.78 1014.98 360.48 1014.98L343.01 1014.98C343.01 1053.57 311.73 1084.85 273.14 1084.85C234.55 1084.85 203.27 1053.57 203.27 1014.98L185.8 1014.98C166.49 1014.98 150.86 999.34 150.86 980.04C150.86 960.74 166.49 945.1 185.8 945.1L168.33 945.1C149.03 945.1 133.39 929.47 133.39 910.17C133.39 897.28 140.47 886.13 150.86 880.07L150.86 813.59C150.86 807.93 148.29 802.75 143.96 799.77C80.93 756.1 44.36 684.35 46.12 607.9ZM81.04 608.7C79.55 673.38 110.53 734.09 163.87 771.05C177.6 780.57 185.8 796.47 185.8 813.59L185.8 875.23L238.2 875.23L238.2 711.9C204.12 699.67 177.6 669.12 170.48 632.26C159.59 575.98 191.25 525.51 238.2 508.4L238.2 592.07C238.2 602.01 246.03 610.06 255.67 610.06L290.61 610.06C300.25 610.06 308.08 602.01 308.08 592.07L308.08 508.4C348.76 523.23 377.95 563.09 377.95 610.06C377.95 657.05 348.76 696.93 308.08 711.76L308.08 875.23L360.48 875.23L360.48 813.62C360.48 796.45 368.62 780.59 382.26 771.15C434.25 735.19 465.29 676.14 465.29 613.21C465.29 560.49 444.36 511.31 406.37 474.75C368.41 438.21 318.49 419.1 265.59 421.19C166.11 425 83.33 509.11 81.04 608.7Z" />
			<path id="Layer" fill-rule="evenodd" class="shp0" d="M487.34 246.37L447.82 246.37L447.82 176.5L487.34 176.5C490.64 163.71 495.67 151.66 502.22 140.55L474.29 112.62L523.69 63.21L551.62 91.15C562.73 84.6 574.78 79.56 587.57 76.26L587.57 36.75L657.44 36.75L657.44 76.26C670.23 79.56 682.28 84.6 693.39 91.15L721.32 63.21L770.72 112.62L742.79 140.55C749.34 151.66 754.37 163.71 757.68 176.5L797.19 176.5L797.19 246.37L757.68 246.37C754.37 259.16 749.34 271.23 742.79 282.32L770.72 310.25L721.32 359.65L693.39 331.72C682.28 338.27 670.23 343.3 657.44 346.6L657.44 386.12L587.57 386.12L587.57 346.6C574.78 343.3 562.71 338.27 551.62 331.72L523.69 359.65L474.29 310.25L502.22 282.32C495.67 271.21 490.64 259.16 487.34 246.37ZM552.63 211.43C552.63 250.02 583.92 281.31 622.51 281.31C661.09 281.31 692.38 250.02 692.38 211.43C692.38 172.85 661.09 141.56 622.51 141.56C583.92 141.56 552.63 172.85 552.63 211.43Z" />
			<path id="Layer" fill-rule="evenodd" class="shp0" d="M1054.64 630.67L1094.15 630.67L1094.15 700.55L1054.64 700.55C1051.34 713.33 1046.31 725.4 1039.75 736.5L1067.69 764.43L1018.29 813.83L990.35 785.9C979.24 792.45 967.19 797.48 954.4 800.78L954.4 840.29L884.53 840.29L884.53 800.78C871.74 797.48 859.67 792.45 848.58 785.9L820.65 813.83L771.25 764.43L799.18 736.5C792.63 725.39 787.6 713.33 784.3 700.55L744.78 700.55L744.78 630.67L784.3 630.67C787.6 617.89 792.63 605.82 799.18 594.72L771.25 566.79L820.65 517.39L848.58 545.32C859.69 538.77 871.74 533.74 884.53 530.44L884.53 490.93L954.4 490.93L954.4 530.44C967.19 533.74 979.26 538.77 990.35 545.32L1018.29 517.39L1067.69 566.79L1039.75 594.72C1046.31 605.83 1051.34 617.89 1054.64 630.67ZM989.34 665.61C989.34 627.02 958.06 595.74 919.47 595.74C880.88 595.74 849.59 627.02 849.59 665.61C849.59 704.2 880.88 735.48 919.47 735.48C958.06 735.48 989.34 704.2 989.34 665.61Z" />
			<path id="Layer" class="shp0" d="M238.2 246.37L273.14 246.37L273.14 281.31L238.2 281.31L238.2 246.37Z" />
			<path id="Layer" class="shp0" d="M343.01 159.03L377.95 159.03L377.95 193.97L343.01 193.97L343.01 159.03Z" />
			<path id="Layer" class="shp0" d="M867.06 211.43L902 211.43L902 246.37L867.06 246.37L867.06 211.43Z" />
			<path id="Layer" class="shp0" d="M936.94 368.65L971.87 368.65L971.87 403.59L936.94 403.59L936.94 368.65Z" />
			<path id="Layer" class="shp0" d="M605.04 525.86L639.97 525.86L639.97 560.8L605.04 560.8L605.04 525.86Z" />
			<path id="Layer" class="shp0" d="M1006.81 71.69L1041.75 71.69L1041.75 106.62L1006.81 106.62L1006.81 71.69Z" />
		</g>
		<g id="Layer">
			<g id="Layer">
				<path id="Layer" fill-rule="evenodd" class="shp0" d="M1345.5 423.75C1323.17 423.75 1303.25 420.83 1285.75 415C1268.42 409.17 1255.75 402.42 1247.75 394.75L1261.75 358C1285.25 376.5 1313.25 385.75 1345.75 385.75C1370.75 385.75 1390.58 379.58 1405.25 367.25C1420.08 354.75 1427.5 337.33 1427.5 315C1427.5 302.83 1425.58 292.25 1421.75 283.25C1418.08 274.08 1413.08 266.75 1406.75 261.25C1400.58 255.58 1392.58 251.08 1382.75 247.75C1373.08 244.25 1363.08 241.83 1352.75 240.5C1342.58 239 1330.75 238.08 1317.25 237.75C1315.58 237.75 1313.08 237.75 1309.75 237.75C1306.42 237.58 1303.92 237.5 1302.25 237.5L1302.25 200.25L1314.75 200.25C1326.42 200.08 1336.67 199.5 1345.5 198.5C1354.5 197.33 1363.42 195.33 1372.25 192.5C1381.25 189.67 1388.67 185.92 1394.5 181.25C1400.33 176.58 1405.08 170.33 1408.75 162.5C1412.42 154.67 1414.25 145.42 1414.25 134.75C1414.25 94.75 1391.33 74.75 1345.5 74.75C1329 74.75 1313.5 77.17 1299 82C1284.5 86.83 1272.08 93.33 1261.75 101.5L1247.75 65C1272.58 46.17 1308.33 36.75 1355 36.75C1373.83 36.75 1391.25 40.25 1407.25 47.25C1423.25 54.08 1436.42 64.67 1446.75 79C1457.08 93.17 1462.25 109.83 1462.25 129C1462.25 152.33 1456.5 171.5 1445 186.5C1433.5 201.5 1417.33 212.25 1396.5 218.75C1419.83 223.75 1438.08 234.67 1451.25 251.5C1464.58 268.33 1471.25 289.67 1471.25 315.5C1471.25 348.33 1459.5 374.58 1436 394.25C1412.5 413.92 1382.33 423.75 1345.5 423.75ZM1656.5 187.75C1677.5 187.75 1696.92 192.75 1714.75 202.75C1732.58 212.58 1746.92 226.67 1757.75 245C1768.58 263.17 1774 283.42 1774 305.75C1774 339.75 1762.5 367.92 1739.5 390.25C1716.67 412.58 1686.5 423.75 1649 423.75C1629.5 423.75 1611.67 420.5 1595.5 414C1579.5 407.33 1566.25 398.42 1555.75 387.25C1545.42 375.92 1537.33 362.83 1531.5 348C1525.83 333 1523 317 1523 300C1523 272.83 1527.92 248.58 1537.75 227.25C1547.75 205.75 1565.75 178.58 1591.75 145.75C1598.08 137.75 1608.08 125.42 1621.75 108.75C1635.42 92.08 1647.58 77.42 1658.25 64.75L1674 45.75L1731.75 45.75L1600.25 202.75C1619.08 192.75 1637.83 187.75 1656.5 187.75ZM1570.25 304.75C1570.25 319.58 1573 333 1578.5 345C1584.17 357 1592.92 366.83 1604.75 374.5C1616.75 382 1631 385.75 1647.5 385.75C1672.17 385.75 1691.5 378.17 1705.5 363C1719.67 347.83 1726.75 329 1726.75 306.5C1726.75 282.83 1719.67 263.42 1705.5 248.25C1691.5 232.92 1672.17 225.25 1647.5 225.25C1621.33 225.25 1601.92 232.67 1589.25 247.5C1576.58 262.33 1570.25 281.42 1570.25 304.75ZM1856.25 44L2048 44L2044.5 85L1891.75 85C1890.08 133.5 1888.83 172.75 1888 202.75C1906.83 190.75 1927.25 184.75 1949.25 184.75C1967.75 184.75 1984.25 187.75 1998.75 193.75C2013.42 199.58 2025.33 207.67 2034.5 218C2043.83 228.33 2050.92 240.42 2055.75 254.25C2060.58 267.92 2063 282.75 2063 298.75C2063 336.58 2050.83 366.92 2026.5 389.75C2002.33 412.42 1969.42 423.75 1927.75 423.75C1885.92 423.75 1852.42 412.33 1827.25 389.5L1843.5 354.25C1868.17 373.58 1896.75 383.25 1929.25 383.25C1956.58 383.25 1978.17 375.5 1994 360C2009.83 344.5 2017.75 324.25 2017.75 299.25C2017.75 276.92 2011.08 258.83 1997.75 245C1984.42 231 1965.42 224 1940.75 224C1916.08 224 1896.25 232.25 1881.25 248.75L1846.5 244L1856.25 44Z" />
			</g>
		</g>
		<g id="Layer">
			<g id="Layer">
				<path id="Layer" fill-rule="evenodd" class="shp0" d="M1532.75 590.85L1532.75 960.6L1489.5 960.6L1489.5 787.6L1291 787.6L1291 960.6L1247.75 960.6L1247.75 590.85L1291 590.85L1291 749.6L1489.5 749.6L1489.5 590.85L1532.75 590.85ZM1685.5 958.6L1577 686.35L1621.25 686.35L1707.75 914.6L1784.75 686.35L1829 686.35C1755 890.02 1716.75 995.02 1714.25 1001.35C1702.75 1030.18 1688.83 1051.35 1672.5 1064.85C1656.17 1078.18 1634.67 1084.85 1608 1084.85C1600 1084.85 1591.58 1084.18 1582.75 1082.85L1580.25 1047.35C1589.58 1048.02 1596.58 1048.35 1601.25 1048.35C1620.08 1048.35 1634.33 1044.93 1644 1038.1C1653.83 1031.1 1662.58 1018.1 1670.25 999.1C1677.08 981.6 1682.17 968.1 1685.5 958.6ZM1996.5 680.6C2020.83 680.6 2041.83 686.77 2059.5 699.1C2077.17 711.43 2090.42 728.18 2099.25 749.35C2108.08 770.52 2112.5 794.77 2112.5 822.1C2112.5 850.43 2108.08 875.35 2099.25 896.85C2090.58 918.35 2077.33 935.35 2059.5 947.85C2041.83 960.18 2020.67 966.35 1996 966.35C1977.83 966.35 1961.25 962.43 1946.25 954.6C1931.25 946.77 1918.75 936.1 1908.75 922.6L1904.5 960.6L1868.75 960.6L1868.75 579.85L1910.5 577.35L1910.5 668.1C1910.5 690.43 1910.17 709.6 1909.5 725.6C1919.17 711.77 1931.67 700.85 1947 692.85C1962.5 684.68 1979 680.6 1996.5 680.6ZM1992.25 715.35C1965.75 715.35 1945.42 724.52 1931.25 742.85C1917.25 761.02 1910.25 787.77 1910.25 823.1C1910.25 895.43 1937.5 931.6 1992 931.6C2005.5 931.6 2017.33 928.85 2027.5 923.35C2037.83 917.68 2045.92 909.85 2051.75 899.85C2057.75 889.68 2062.17 878.27 2065 865.6C2068 852.93 2069.5 838.85 2069.5 823.35C2069.5 802.35 2067 784.02 2062 768.35C2057.17 752.68 2048.83 739.93 2037 730.1C2025.17 720.27 2010.25 715.35 1992.25 715.35ZM2294.25 683.85C2301.75 683.85 2308.58 684.35 2314.75 685.35L2313.25 723.85C2305.58 722.52 2298.92 721.85 2293.25 721.85C2269.92 721.85 2250.92 730.02 2236.25 746.35C2221.75 762.52 2214.5 782.6 2214.5 806.6L2214.5 960.6L2172.75 960.6C2172.58 792.27 2172.5 700.85 2172.5 686.35L2207.25 686.35L2211.25 735.6C2220.75 720.1 2232.83 707.6 2247.5 698.1C2262.17 688.6 2277.75 683.85 2294.25 683.85ZM2365 686.35L2407 686.35L2407 960.6L2365 960.6L2365 686.35ZM2365 586.6L2407 586.6L2407 636.1L2365 636.1L2365 586.6ZM2680.25 960.6L2674.75 920.85C2665.75 934.68 2653.75 945.68 2638.75 953.85C2623.75 962.02 2607 966.1 2588.5 966.1C2552.33 966.1 2524 953.27 2503.5 927.6C2483 901.77 2472.75 866.68 2472.75 822.35C2472.75 780.02 2483.17 745.85 2504 719.85C2524.83 693.68 2552.75 680.6 2587.75 680.6C2605.92 680.6 2623 684.6 2639 692.6C2655.17 700.43 2667.25 711.02 2675.25 724.35L2674.5 700.6L2674.5 579.85L2715.75 577.35L2715.75 960.6L2680.25 960.6ZM2592.5 930.35C2620 930.35 2640.42 921.52 2653.75 903.85C2667.25 886.18 2674 860.93 2674 828.1C2674 791.1 2667.5 763.27 2654.5 744.6C2641.67 725.77 2620.83 716.35 2592 716.35C2579.17 716.35 2567.83 719.1 2558 724.6C2548.17 730.1 2540.25 737.77 2534.25 747.6C2528.25 757.43 2523.67 768.77 2520.5 781.6C2517.5 794.27 2516 808.18 2516 823.35C2516 844.68 2518.58 863.18 2523.75 878.85C2529.08 894.52 2537.58 907.02 2549.25 916.35C2560.92 925.68 2575.33 930.35 2592.5 930.35ZM3039.25 629.1L3039.25 960.6L2995.75 960.6L2995.75 629.1L2882 629.1L2882 590.85L3153 590.85L3153 629.1L3039.25 629.1ZM3432 823.35C3432 865.85 3420.67 900.35 3398 926.85C3375.33 953.18 3344 966.35 3304 966.35C3265.5 966.35 3234.83 953.02 3212 926.35C3189.33 899.68 3178 865.43 3178 823.6C3178 780.93 3189.42 746.43 3212.25 720.1C3235.08 693.77 3266.42 680.6 3306.25 680.6C3345.42 680.6 3376.17 693.85 3398.5 720.35C3420.83 746.68 3432 781.02 3432 823.35ZM3221.25 824.1C3221.25 856.6 3228.42 882.68 3242.75 902.35C3257.25 921.85 3278.33 931.6 3306 931.6C3333.33 931.6 3353.92 921.85 3367.75 902.35C3381.75 882.85 3388.75 856.6 3388.75 823.6C3388.75 790.1 3381.83 763.77 3368 744.6C3354.33 725.27 3333.42 715.6 3305.25 715.6C3277.92 715.6 3257.08 725.43 3242.75 745.1C3228.42 764.77 3221.25 791.1 3221.25 824.1ZM3732.25 823.35C3732.25 865.85 3720.92 900.35 3698.25 926.85C3675.58 953.18 3644.25 966.35 3604.25 966.35C3565.75 966.35 3535.08 953.02 3512.25 926.35C3489.58 899.68 3478.25 865.43 3478.25 823.6C3478.25 780.93 3489.67 746.43 3512.5 720.1C3535.33 693.77 3566.67 680.6 3606.5 680.6C3645.67 680.6 3676.42 693.85 3698.75 720.35C3721.08 746.68 3732.25 781.02 3732.25 823.35ZM3521.5 824.1C3521.5 856.6 3528.67 882.68 3543 902.35C3557.5 921.85 3578.58 931.6 3606.25 931.6C3633.58 931.6 3654.17 921.85 3668 902.35C3682 882.85 3689 856.6 3689 823.6C3689 790.1 3682.08 763.77 3668.25 744.6C3654.58 725.27 3633.67 715.6 3605.5 715.6C3578.17 715.6 3557.33 725.43 3543 745.1C3528.67 764.77 3521.5 791.1 3521.5 824.1ZM3865 965.6C3838.33 965.6 3819.42 958.43 3808.25 944.1C3797.25 929.77 3791.75 904.85 3791.75 869.35L3791.75 579.85L3833.25 577.35L3833.25 852.85C3833.25 864.18 3833.33 873.27 3833.5 880.1C3833.83 886.93 3834.5 893.68 3835.5 900.35C3836.5 906.85 3837.83 911.77 3839.5 915.1C3841.17 918.43 3843.58 921.52 3846.75 924.35C3849.92 927.02 3853.67 928.85 3858 929.85C3862.5 930.68 3868 931.1 3874.5 931.1C3879.83 931.1 3890.33 930.1 3906 928.1L3908.25 961.35C3891.08 964.18 3876.67 965.6 3865 965.6ZM3975.5 960.6L3934 960.6L3934 579.85L3975.5 577.35L3975.5 811.6C3976.5 810.6 3978 808.93 3980 806.6C3982 804.27 3983.58 802.52 3984.75 801.35C3999.25 785.52 4036.75 747.18 4097.25 686.35L4150.25 686.35L4036.25 801.85L4158.25 960.6L4106.25 960.6L4006 825.6L3975.5 851.85L3975.5 960.6ZM4201 686.35L4243 686.35L4243 960.6L4201 960.6L4201 686.35ZM4201 586.6L4243 586.6L4243 636.1L4201 636.1L4201 586.6ZM4409 965.6C4382 965.6 4362.83 959.02 4351.5 945.85C4340.17 932.68 4334.17 911.43 4333.5 882.1L4333.5 717.35L4292.75 717.35L4294.5 689.85L4333.25 686.35L4347.5 623.6L4375 622.6L4375 686.35L4451.25 686.35L4451.25 717.35L4375 717.35L4375 874.6C4375 895.43 4378.17 910.1 4384.5 918.6C4390.83 927.1 4401.67 931.35 4417 931.35C4422.5 931.35 4434.42 930.02 4452.75 927.35L4454.5 960.35C4434.67 963.85 4419.5 965.6 4409 965.6Z" />
			</g>
		</g>
	</g>
</svg>